<svg id="visual" viewBox="0 0 900 900" width="900" height="900" xmlns="http://www.w3.org/2000/svg" xmlns:xlink="http://www.w3.org/1999/xlink" version="1.1"><rect x="0" y="0" width="900" height="900" fill="#0a1228"></rect><defs><linearGradient id="grad1_0" x1="0%" y1="100%" x2="100%" y2="0%"><stop offset="30%" stop-color="#ff4d80" stop-opacity="1"></stop><stop offset="70%" stop-color="#ff4d80" stop-opacity="1"></stop></linearGradient></defs><defs><linearGradient id="grad1_1" x1="0%" y1="100%" x2="100%" y2="0%"><stop offset="30%" stop-color="#ff4d80" stop-opacity="1"></stop><stop offset="70%" stop-color="#0a1228" stop-opacity="1"></stop></linearGradient></defs><defs><linearGradient id="grad2_0" x1="0%" y1="100%" x2="100%" y2="0%"><stop offset="30%" stop-color="#ff4d80" stop-opacity="1"></stop><stop offset="70%" stop-color="#ff4d80" stop-opacity="1"></stop></linearGradient></defs><defs><linearGradient id="grad2_1" x1="0%" y1="100%" x2="100%" y2="0%"><stop offset="30%" stop-color="#0a1228" stop-opacity="1"></stop><stop offset="70%" stop-color="#ff4d80" stop-opacity="1"></stop></linearGradient></defs><g transform="translate(900, 900)"><path d="M-127.3 0C-124.1 -16.6 -120.9 -33.3 -113.6 -47.1C-106.4 -60.9 -95.1 -71.8 -84.1 -84.1C-73.2 -96.5 -62.7 -110.2 -48.7 -117.6C-34.7 -125 -17.4 -126.1 0 -127.3L0 0Z" fill="#743573"></path><path d="M-63.6 0C-62 -8.3 -60.4 -16.6 -56.8 -23.5C-53.2 -30.4 -47.5 -35.9 -42.1 -42.1C-36.6 -48.2 -31.3 -55.1 -24.4 -58.8C-17.4 -62.5 -8.7 -63.1 0 -63.6L0 0Z" fill="#ff4d80"></path></g><g transform="translate(0, 0)"><path d="M127.3 0C123.6 15.7 120 31.4 114.6 47.5C109.2 63.5 102 79.9 90 90C78 100.1 61 103.9 45.2 109C29.3 114.2 14.7 120.7 0 127.3L0 0Z" fill="#743573"></path><path d="M63.6 0C61.8 7.8 60 15.7 57.3 23.7C54.6 31.8 51 40 45 45C39 50 30.5 51.9 22.6 54.5C14.7 57.1 7.3 60.4 0 63.6L0 0Z" fill="#ff4d80"></path></g></svg>